<svg width="100" height="100" viewBox="0 0 100 100" fill="none" xmlns="http://www.w3.org/2000/svg">
    <path
        d="M20.8333 20.8333H45.8333C48.125 20.8333 50 18.9583 50 16.6667C50 14.375 48.125 12.5 45.8333 12.5H20.8333C16.25 12.5 12.5 16.25 12.5 20.8333V79.1667C12.5 83.75 16.25 87.5 20.8333 87.5H45.8333C48.125 87.5 50 85.625 50 83.3333C50 81.0417 48.125 79.1667 45.8333 79.1667H20.8333V20.8333Z"
        fill="white" />
    <path
        d="M86.0417 48.5417L74.4167 36.9167C74.1269 36.619 73.7549 36.4145 73.3482 36.3294C72.9415 36.2444 72.5187 36.2826 72.1339 36.4392C71.7491 36.5958 71.4198 36.8637 71.1881 37.2086C70.9564 37.5534 70.8329 37.9595 70.8333 38.375V45.8333H41.6667C39.375 45.8333 37.5 47.7083 37.5 50C37.5 52.2917 39.375 54.1667 41.6667 54.1667H70.8333V61.625C70.8333 63.5 73.0833 64.4167 74.375 63.0833L86 51.4583C86.8333 50.6667 86.8333 49.3333 86.0417 48.5417Z"
        fill="white" />
</svg>