<svg width="20" height="20" viewBox="0 0 20 20" fill="none" xmlns="http://www.w3.org/2000/svg">
<path fill-rule="evenodd" clip-rule="evenodd" d="M1.66667 0C0.746192 0 0 0.746192 0 1.66667V7.91667C0 8.83714 0.746192 9.58333 1.66667 9.58333H7.91667C8.83714 9.58333 9.58333 8.83714 9.58333 7.91667V1.66667C9.58333 0.746192 8.83714 0 7.91667 0H1.66667ZM5.60261 2.44896C5.36233 2.38889 5.07584 2.35885 4.74314 2.35885C4.58141 2.35885 4.41737 2.36347 4.25103 2.37271C4.0893 2.37733 3.91602 2.3912 3.73119 2.4143C3.55097 2.43741 3.34766 2.47437 3.12124 2.5252L3.16283 3.31536C3.37538 3.29687 3.56022 3.28301 3.71732 3.27377C3.87905 3.26453 4.02923 3.25991 4.16785 3.25991C4.3111 3.25529 4.46358 3.25298 4.62531 3.25298C4.76855 3.25298 4.88869 3.25991 4.98573 3.27377C5.08277 3.28763 5.15439 3.31767 5.2006 3.36388C5.25143 3.41008 5.27915 3.48402 5.28377 3.58567C5.28839 3.75202 5.21446 3.94841 5.06198 4.17483C4.91411 4.40125 4.69924 4.66001 4.41737 4.95112L3.22521 6.22646C3.17438 6.28653 3.13741 6.35353 3.11431 6.42746C3.0912 6.49678 3.07965 6.57302 3.07965 6.65619V7.22455H6.50366V6.29577H5.02732C4.90718 6.29577 4.78704 6.30039 4.6669 6.30963C4.55138 6.31426 4.43586 6.32581 4.32034 6.34429L5.57488 5.04816C5.78744 4.82174 5.94917 4.62535 6.06007 4.459C6.17559 4.29266 6.25414 4.13324 6.29573 3.98075C6.34194 3.82365 6.36504 3.65499 6.36504 3.47477C6.36504 3.1698 6.29804 2.93645 6.16404 2.77472C6.03003 2.613 5.84289 2.50441 5.60261 2.44896Z" fill="#676A8E"/>
<path fill-rule="evenodd" clip-rule="evenodd" d="M1.66667 10.4167C0.746192 10.4167 0 11.1629 0 12.0833V18.3333C0 19.2538 0.746192 20 1.66667 20H7.91667C8.83714 20 9.58333 19.2538 9.58333 18.3333V12.0833C9.58333 11.1629 8.83714 10.4167 7.91667 10.4167H1.66667ZM3.95333 15.5558L5.06272 12.9026H4.10035L2.89072 15.783C2.84171 15.8944 2.83057 16.0058 2.8573 16.1172C2.88849 16.2241 2.94864 16.3132 3.03774 16.3845C3.12685 16.4513 3.23378 16.4847 3.35853 16.4847H5.23648V17.5139H6.1788V16.4836L6.74018 16.3845V15.7763H6.1788V13.7981H5.40356L5.23648 14.5333V15.7763H4.09367C4.0313 15.7763 3.98451 15.7585 3.95333 15.7229C3.92214 15.6828 3.92214 15.6271 3.95333 15.5558Z" fill="#676A8E"/>
<path d="M14.8225 3.23458C14.9226 3.1845 15.0478 3.15946 15.1981 3.15946C15.3529 3.15946 15.4804 3.1845 15.5805 3.23458C15.6852 3.28466 15.7672 3.36889 15.8264 3.48726C15.8901 3.60563 15.9334 3.7718 15.9561 3.98578C15.9834 4.19521 15.9971 4.46382 15.9971 4.79162C15.9971 5.11487 15.9834 5.38348 15.9561 5.59746C15.9334 5.81144 15.8901 5.97762 15.8264 6.09599C15.7672 6.21436 15.6852 6.29859 15.5805 6.34867C15.4804 6.39875 15.3529 6.42379 15.1981 6.42379C15.0478 6.42379 14.9226 6.39875 14.8225 6.34867C14.7223 6.29859 14.6427 6.21436 14.5835 6.09599C14.5243 5.97762 14.481 5.81144 14.4537 5.59746C14.431 5.38348 14.4196 5.11487 14.4196 4.79162C14.4196 4.46382 14.431 4.19521 14.4537 3.98578C14.481 3.7718 14.5243 3.60563 14.5835 3.48726C14.6427 3.36889 14.7223 3.28466 14.8225 3.23458Z" fill="#676A8E"/>
<path fill-rule="evenodd" clip-rule="evenodd" d="M12.0833 0C11.1629 0 10.4167 0.746192 10.4167 1.66667V7.91667C10.4167 8.83714 11.1629 9.58333 12.0833 9.58333H18.3333C19.2538 9.58333 20 8.83714 20 7.91667V1.66667C20 0.746192 19.2538 0 18.3333 0H12.0833ZM16.2771 2.57898C16.013 2.41963 15.6556 2.33996 15.2049 2.33996C14.7542 2.33996 14.3945 2.41963 14.1259 2.57898C13.8619 2.73833 13.6729 2.99784 13.5591 3.3575C13.4453 3.71262 13.3884 4.19066 13.3884 4.79162C13.3884 5.39259 13.4453 5.8729 13.5591 6.23257C13.6729 6.58769 13.8619 6.84492 14.1259 7.00426C14.3945 7.16361 14.7542 7.24328 15.2049 7.24328C15.6556 7.24328 16.013 7.16361 16.2771 7.00426C16.5457 6.84492 16.7369 6.58769 16.8507 6.23257C16.9691 5.8729 17.0283 5.39259 17.0283 4.79162C17.0283 4.19066 16.9691 3.71262 16.8507 3.3575C16.7369 2.99784 16.5457 2.73833 16.2771 2.57898Z" fill="#676A8E"/>
<path d="M14.8143 15.5055C14.9203 15.4825 15.0563 15.4709 15.2222 15.4709C15.3789 15.4709 15.5079 15.4825 15.6093 15.5055C15.7107 15.5239 15.789 15.5608 15.8443 15.6161C15.8996 15.6668 15.9388 15.7405 15.9618 15.8373C15.9849 15.9295 15.9964 16.0516 15.9964 16.2037C15.9964 16.3788 15.9757 16.5171 15.9342 16.6185C15.8927 16.7198 15.8144 16.7913 15.6991 16.8327C15.5885 16.8696 15.4272 16.888 15.2153 16.888C14.9987 16.888 14.8304 16.8696 14.7106 16.8327C14.5954 16.7913 14.5148 16.7198 14.4687 16.6185C14.4272 16.5171 14.4065 16.3788 14.4065 16.2037C14.4065 16.0516 14.418 15.9295 14.441 15.8373C14.4641 15.7405 14.5056 15.6668 14.5655 15.6161C14.6254 15.5608 14.7083 15.5239 14.8143 15.5055Z" fill="#676A8E"/>
<path d="M14.759 13.5285C14.865 13.4916 15.0171 13.4732 15.2153 13.4732C15.4134 13.4732 15.5632 13.4916 15.6646 13.5285C15.7706 13.5653 15.842 13.6322 15.8789 13.7289C15.9157 13.8257 15.9342 13.964 15.9342 14.1437C15.9342 14.3096 15.9157 14.4386 15.8789 14.5308C15.8466 14.6184 15.7798 14.6806 15.6784 14.7175C15.577 14.7497 15.4272 14.7658 15.2291 14.7658C15.0309 14.7658 14.8765 14.7497 14.7659 14.7175C14.6599 14.6852 14.5862 14.6253 14.5447 14.5377C14.5032 14.4456 14.4825 14.3142 14.4825 14.1437C14.4825 13.964 14.5032 13.8257 14.5447 13.7289C14.5862 13.6322 14.6576 13.5653 14.759 13.5285Z" fill="#676A8E"/>
<path fill-rule="evenodd" clip-rule="evenodd" d="M12.0833 10.4167C11.1629 10.4167 10.4167 11.1629 10.4167 12.0833V18.3333C10.4167 19.2538 11.1629 20 12.0833 20H18.3333C19.2538 20 20 19.2538 20 18.3333V12.0833C20 11.1629 19.2538 10.4167 18.3333 10.4167H12.0833ZM16.0517 12.8165C15.8351 12.7658 15.554 12.7404 15.2083 12.7404C14.8673 12.7404 14.5862 12.7658 14.365 12.8165C14.1484 12.8672 13.9779 12.9432 13.8535 13.0446C13.7336 13.146 13.6484 13.2773 13.5977 13.4386C13.5516 13.5999 13.5286 13.7912 13.5286 14.0124C13.5286 14.1967 13.5516 14.3695 13.5977 14.5308C13.6484 14.6875 13.7267 14.8188 13.8327 14.9248C13.9387 15.0262 14.077 15.0861 14.2475 15.1046V15.1322C14.0263 15.1507 13.8558 15.2198 13.7359 15.3396C13.6161 15.4548 13.5332 15.6046 13.4871 15.7889C13.441 15.9733 13.418 16.1783 13.418 16.4042C13.418 16.7083 13.4686 16.9549 13.57 17.1438C13.6714 17.3328 13.8512 17.4687 14.1092 17.5517C14.3673 17.6346 14.7337 17.6761 15.2083 17.6761C15.6922 17.6761 16.0632 17.6346 16.3213 17.5517C16.5794 17.4687 16.7568 17.3328 16.8536 17.1438C16.9503 16.9549 16.9987 16.7083 16.9987 16.4042C16.9987 16.1783 16.9757 15.9733 16.9296 15.7889C16.8835 15.6046 16.8006 15.4548 16.6808 15.3396C16.5609 15.2198 16.3904 15.1507 16.1692 15.1322V15.1046C16.3397 15.0861 16.4757 15.0262 16.5771 14.9248C16.6831 14.8188 16.7591 14.6875 16.8052 14.5308C16.8559 14.3695 16.8812 14.1967 16.8812 14.0124C16.8812 13.7912 16.8582 13.5999 16.8121 13.4386C16.766 13.2773 16.6808 13.146 16.5563 13.0446C16.4365 12.9432 16.2683 12.8672 16.0517 12.8165Z" fill="#676A8E"/>
</svg>
