<svg width="150" height="38" viewBox="0 0 150 38" fill="none" xmlns="http://www.w3.org/2000/svg">
<path d="M23.4851 17.6645C23.4458 13.4923 27.0601 11.4625 27.2254 11.368C25.1784 8.51617 22.0058 8.12652 20.8908 8.09545C18.2262 7.82749 15.6414 9.61909 14.284 9.61909C12.8995 9.61909 10.8092 8.12134 8.55636 8.16536C5.65732 8.20808 2.94522 9.81197 1.45777 12.3026C-1.61196 17.381 0.677469 24.8438 3.61851 28.9487C5.0897 30.9591 6.80881 33.2038 9.05895 33.1248C11.2603 33.0381 12.0826 31.7837 14.7392 31.7837C17.3714 31.7837 18.1435 33.1248 20.4384 33.0743C22.801 33.0381 24.2884 31.0549 25.7081 29.0264C27.4083 26.7222 28.091 24.4529 28.1181 24.3364C28.0626 24.3183 23.5298 22.6652 23.4851 17.6645Z" fill="white"/>
<path d="M19.1501 5.3951C20.3341 3.9802 21.1442 2.05527 20.9193 0.101852C19.2056 0.174345 17.0625 1.23455 15.8284 2.61838C14.7365 3.83781 13.7611 5.83653 14.0131 7.71616C15.9381 7.85338 17.9146 6.788 19.1501 5.3951Z" fill="white"/>
<path d="M57.1887 32.8359H54.1122L52.4269 27.7757H46.5693L44.9639 32.8359H41.9687L47.7722 15.6086H51.3567L57.1887 32.8359ZM51.9189 25.6527L50.3949 21.1543C50.2337 20.6947 49.9316 19.6125 49.4859 17.9089H49.4317C49.2543 18.6416 48.9684 19.7238 48.5756 21.1543L47.0786 25.6527H51.9189Z" fill="white"/>
<path d="M72.1133 26.4728C72.1133 28.5855 71.5159 30.2554 70.3211 31.4813C69.2509 32.5726 67.9219 33.1176 66.3356 33.1176C64.6232 33.1176 63.3932 32.5299 62.644 31.3544H62.5898V37.8982H59.7016V24.5039C59.7016 23.1757 59.6651 21.8126 59.5946 20.4145H62.1347L62.2959 22.3835H62.3501C63.3132 20.9 64.775 20.1595 66.7366 20.1595C68.2701 20.1595 69.5503 20.7382 70.5744 21.8967C71.6013 23.0566 72.1133 24.5816 72.1133 26.4728ZM69.1709 26.5738C69.1709 25.3647 68.8865 24.368 68.3148 23.5835C67.6903 22.7654 66.8517 22.3563 65.8005 22.3563C65.0879 22.3563 64.4403 22.5841 63.8619 23.0333C63.2821 23.4864 62.9028 24.078 62.7253 24.8107C62.6359 25.1524 62.5912 25.4321 62.5912 25.6521V27.7233C62.5912 28.6269 62.8811 29.3894 63.4609 30.012C64.0407 30.6347 64.7939 30.9454 65.7205 30.9454C66.8084 30.9454 67.655 30.5441 68.2606 29.7441C68.8675 28.9428 69.1709 27.8864 69.1709 26.5738Z" fill="white"/>
<path d="M87.0652 26.4728C87.0652 28.5855 86.4678 30.2554 85.2716 31.4813C84.2028 32.5726 82.8738 33.1176 81.2875 33.1176C79.5751 33.1176 78.3451 32.5299 77.5973 31.3544H77.5431V37.8982H74.6549V24.5039C74.6549 23.1757 74.6183 21.8126 74.5479 20.4145H77.0879L77.2491 22.3835H77.3033C78.2651 20.9 79.7269 20.1595 81.6898 20.1595C83.222 20.1595 84.5022 20.7382 85.529 21.8967C86.5518 23.0566 87.0652 24.5816 87.0652 26.4728ZM84.1228 26.5738C84.1228 25.3647 83.837 24.368 83.2653 23.5835C82.6408 22.7654 81.805 22.3563 80.7524 22.3563C80.0384 22.3563 79.3923 22.5841 78.8124 23.0333C78.2326 23.4864 77.8547 24.078 77.6772 24.8107C77.5892 25.1524 77.5431 25.4321 77.5431 25.6521V27.7233C77.5431 28.6269 77.833 29.3894 78.4101 30.012C78.9899 30.6334 79.7431 30.9454 80.6724 30.9454C81.7603 30.9454 82.6069 30.5441 83.2125 29.7441C83.8194 28.9428 84.1228 27.8864 84.1228 26.5738Z" fill="white"/>
<path d="M103.782 28.0052C103.782 29.4705 103.25 30.6628 102.181 31.5832C101.006 32.589 99.3712 33.0913 97.2701 33.0913C95.3302 33.0913 93.775 32.734 92.5978 32.0181L93.267 29.7178C94.535 30.4505 95.9262 30.8181 97.4421 30.8181C98.53 30.8181 99.3766 30.5825 99.9849 30.1139C100.59 29.6453 100.893 29.0162 100.893 28.2317C100.893 27.5327 100.643 26.9437 100.143 26.466C99.6462 25.9883 98.8158 25.5443 97.6562 25.1339C94.4997 24.009 92.9229 22.3611 92.9229 20.1941C92.9229 18.7779 93.4756 17.6167 94.5824 16.7131C95.6851 15.8083 97.1563 15.3565 98.996 15.3565C100.637 15.3565 101.999 15.6296 103.087 16.1746L102.365 18.4245C101.349 17.8963 100.2 17.6322 98.9147 17.6322C97.8987 17.6322 97.1048 17.8717 96.5359 18.3481C96.0549 18.774 95.8138 19.2931 95.8138 19.908C95.8138 20.5889 96.0888 21.152 96.6415 21.5947C97.1224 22.0038 97.9962 22.4465 99.2642 22.9242C100.815 23.521 101.955 24.2187 102.688 25.0187C103.418 25.8161 103.782 26.8142 103.782 28.0052Z" fill="white"/>
<path d="M113.331 22.4852H110.148V28.5163C110.148 30.0503 110.709 30.8167 111.833 30.8167C112.349 30.8167 112.777 30.774 113.116 30.6885L113.196 32.7844C112.627 32.9876 111.878 33.0899 110.95 33.0899C109.809 33.0899 108.918 32.7572 108.274 32.0931C107.633 31.4277 107.311 30.3118 107.311 28.7442V22.4826H105.414V20.4114H107.311V18.137L110.148 17.3188V20.4114H113.331V22.4852Z" fill="white"/>
<path d="M127.695 26.5227C127.695 28.4321 127.123 29.9998 125.983 31.2257C124.786 32.4878 123.199 33.1169 121.219 33.1169C119.312 33.1169 117.793 32.5124 116.661 31.3033C115.528 30.0943 114.962 28.568 114.962 26.7285C114.962 24.8036 115.545 23.2269 116.714 22.001C117.88 20.7738 119.454 20.1602 121.434 20.1602C123.341 20.1602 124.876 20.7647 126.034 21.9751C127.142 23.1492 127.695 24.6651 127.695 26.5227ZM124.698 26.612C124.698 25.4664 124.442 24.4839 123.923 23.6644C123.318 22.6728 122.452 22.1783 121.331 22.1783C120.17 22.1783 119.288 22.6741 118.682 23.6644C118.163 24.4851 117.907 25.4832 117.907 26.6638C117.907 27.8094 118.163 28.792 118.682 29.6101C119.307 30.6017 120.179 31.0962 121.305 31.0962C122.408 31.0962 123.273 30.5914 123.898 29.5842C124.43 28.7493 124.698 27.7564 124.698 26.612Z" fill="white"/>
<path d="M137.083 22.8417C136.797 22.7913 136.492 22.7654 136.173 22.7654C135.157 22.7654 134.371 23.1317 133.818 23.8657C133.337 24.513 133.096 25.3311 133.096 26.3188V32.8367H130.209L130.236 24.3265C130.236 22.8948 130.2 21.5912 130.128 20.4158H132.644L132.749 22.7926H132.829C133.134 21.9757 133.615 21.3181 134.273 20.8249C134.917 20.3809 135.612 20.1595 136.361 20.1595C136.628 20.1595 136.869 20.1776 137.083 20.21V22.8417Z" fill="white"/>
<path d="M150 26.0375C150 26.532 149.966 26.9489 149.894 27.2893H141.23C141.264 28.5165 141.682 29.455 142.487 30.1023C143.217 30.6809 144.161 30.9709 145.321 30.9709C146.604 30.9709 147.774 30.7754 148.827 30.3832L149.279 32.2991C148.049 32.8117 146.597 33.0667 144.921 33.0667C142.906 33.0667 141.323 32.4997 140.172 31.367C139.023 30.2343 138.447 28.7133 138.447 26.8052C138.447 24.932 138.982 23.3721 140.054 22.1281C141.176 20.7999 142.691 20.1358 144.599 20.1358C146.472 20.1358 147.891 20.7999 148.854 22.1281C149.617 23.1831 150 24.488 150 26.0375ZM147.246 25.3217C147.265 24.5035 147.077 23.7967 146.685 23.2C146.185 22.4323 145.417 22.0491 144.383 22.0491C143.439 22.0491 142.671 22.4232 142.085 23.1741C141.604 23.7708 141.318 24.4867 141.23 25.3204H147.246V25.3217Z" fill="white"/>
<path d="M50.964 5.01052C50.964 6.53416 50.4858 7.6811 49.5307 8.45133C48.6461 9.16202 47.389 9.51801 45.7606 9.51801C44.9532 9.51801 44.2623 9.48435 43.6839 9.41704V1.09204C44.4384 0.975532 45.2513 0.915985 46.1291 0.915985C47.6802 0.915985 48.8493 1.23832 49.6378 1.88298C50.521 2.61179 50.964 3.65387 50.964 5.01052ZM49.4671 5.04806C49.4671 4.06035 49.1934 3.30306 48.6461 2.7749C48.0988 2.24804 47.2996 1.98396 46.247 1.98396C45.7999 1.98396 45.4192 2.01244 45.1036 2.07198V8.40085C45.2783 8.42674 45.5981 8.43839 46.0627 8.43839C47.1492 8.43839 47.9877 8.14971 48.5784 7.57236C49.169 6.99501 49.4671 6.15357 49.4671 5.04806Z" fill="white"/>
<path d="M58.901 6.34095C58.901 7.27947 58.6206 8.04841 58.0598 8.65165C57.4718 9.27172 56.6929 9.58111 55.7202 9.58111C54.7828 9.58111 54.0363 9.28467 53.4795 8.68919C52.9241 8.09501 52.6464 7.34549 52.6464 6.44192C52.6464 5.49693 52.9322 4.72152 53.5066 4.11957C54.081 3.51762 54.8532 3.216 55.8259 3.216C56.7633 3.216 57.5165 3.51245 58.0869 4.10663C58.6287 4.68398 58.901 5.42962 58.901 6.34095ZM57.4285 6.38496C57.4285 5.82185 57.3011 5.339 57.0478 4.93641C56.7498 4.44967 56.3258 4.2063 55.7744 4.2063C55.2041 4.2063 54.7706 4.44967 54.4725 4.93641C54.2179 5.339 54.0919 5.82962 54.0919 6.40956C54.0919 6.97267 54.2192 7.45552 54.4725 7.85812C54.7801 8.34485 55.2081 8.58822 55.7608 8.58822C56.3027 8.58822 56.7281 8.34097 57.0343 7.84517C57.2971 7.43481 57.4285 6.94808 57.4285 6.38496Z" fill="white"/>
<path d="M69.5437 3.34058L67.5455 9.4429H66.245L65.4173 6.79304C65.2073 6.13154 65.0367 5.47393 64.9039 4.8215H64.8782C64.7549 5.49205 64.5842 6.14837 64.3647 6.79304L63.4855 9.4429H62.1701L60.2912 3.34058H61.7502L62.4722 6.24157C62.647 6.92766 62.7906 7.58139 62.9057 8.20017H62.9315C63.0371 7.69013 63.2119 7.04029 63.4584 6.25452L64.3647 3.34187H65.5216L66.39 6.19238C66.6 6.88754 66.7707 7.5568 66.9021 8.20146H66.9414C67.0375 7.57363 67.1825 6.90436 67.3749 6.19238L68.1497 3.34187H69.5437V3.34058Z" fill="white"/>
<path d="M76.9037 9.44243H75.484V5.94725C75.484 4.87021 75.0559 4.3317 74.197 4.3317C73.7757 4.3317 73.4357 4.47927 73.1715 4.77571C72.9101 5.07216 72.7773 5.42167 72.7773 5.82168V9.44113H71.3576V5.08381C71.3576 4.54788 71.34 3.96664 71.3061 3.33751H72.5538L72.6202 4.29157H72.6595C72.8247 3.99512 73.0713 3.75046 73.3951 3.55499C73.7798 3.32716 74.2106 3.21194 74.682 3.21194C75.2781 3.21194 75.7739 3.39577 76.1681 3.7647C76.6585 4.21649 76.9037 4.89093 76.9037 5.78673V9.44243Z" fill="white"/>
<path d="M80.8189 9.4428H79.4005V0.540451H80.8189V9.4428Z" fill="white"/>
<path d="M89.1774 6.34095C89.1774 7.27947 88.897 8.04841 88.3361 8.65165C87.7482 9.27172 86.9679 9.58111 85.9966 9.58111C85.0578 9.58111 84.3113 9.28467 83.7559 8.68919C83.2005 8.09501 82.9228 7.34549 82.9228 6.44192C82.9228 5.49693 83.2086 4.72152 83.783 4.11957C84.3574 3.51762 85.1296 3.216 86.1009 3.216C87.0397 3.216 87.7915 3.51245 88.3632 4.10663C88.9051 4.68398 89.1774 5.42962 89.1774 6.34095ZM87.7035 6.38496C87.7035 5.82185 87.5761 5.339 87.3228 4.93641C87.0261 4.44967 86.6007 4.2063 86.0507 4.2063C85.4791 4.2063 85.0456 4.44967 84.7489 4.93641C84.4942 5.339 84.3682 5.82962 84.3682 6.40956C84.3682 6.97267 84.4956 7.45552 84.7489 7.85812C85.0564 8.34485 85.4845 8.58822 86.0372 8.58822C86.5791 8.58822 87.0031 8.34097 87.3093 7.84517C87.5734 7.43481 87.7035 6.94808 87.7035 6.38496Z" fill="white"/>
<path d="M96.0482 9.4426H94.7735L94.6678 8.73968H94.6285C94.1923 9.3002 93.5705 9.58111 92.7631 9.58111C92.1603 9.58111 91.6726 9.39599 91.3055 9.02835C90.9722 8.69437 90.8056 8.27883 90.8056 7.78562C90.8056 7.03999 91.1307 6.4717 91.785 6.07816C92.438 5.68463 93.3565 5.49175 94.5391 5.50081V5.3869C94.5391 4.58301 94.0975 4.18171 93.2129 4.18171C92.5829 4.18171 92.0275 4.33317 91.548 4.63349L91.2594 3.74287C91.8528 3.39206 92.5857 3.216 93.4499 3.216C95.1189 3.216 95.9561 4.05743 95.9561 5.7403V7.98757C95.9561 8.59728 95.9873 9.08272 96.0482 9.4426ZM94.5743 7.34549V6.40438C93.0083 6.37849 92.2253 6.78885 92.2253 7.63417C92.2253 7.95262 92.3147 8.19081 92.4976 8.35003C92.6805 8.50925 92.9135 8.58822 93.1912 8.58822C93.5028 8.58822 93.794 8.49372 94.0596 8.30602C94.3264 8.11702 94.4903 7.87753 94.5513 7.58368C94.5662 7.51766 94.5743 7.4374 94.5743 7.34549Z" fill="white"/>
<path d="M104.115 9.4428H102.856L102.789 8.46285H102.75C102.348 9.20849 101.662 9.58131 100.699 9.58131C99.9295 9.58131 99.2887 9.29264 98.7807 8.71529C98.2727 8.13793 98.0194 7.38841 98.0194 6.46801C98.0194 5.4803 98.2944 4.68029 98.8471 4.06929C99.3822 3.4997 100.038 3.21491 100.818 3.21491C101.676 3.21491 102.276 3.49064 102.617 4.0434H102.644V0.540451H104.065V7.79877C104.065 8.39295 104.082 8.94053 104.115 9.4428ZM102.644 6.86931V5.85183C102.644 5.67577 102.631 5.53338 102.605 5.42464C102.525 5.09842 102.353 4.82399 102.092 4.60262C101.827 4.38126 101.509 4.26994 101.142 4.26994C100.612 4.26994 100.198 4.47058 99.8929 4.87318C99.5908 5.27577 99.4377 5.78969 99.4377 6.41753C99.4377 7.02077 99.5827 7.5101 99.8739 7.8868C100.181 8.2881 100.596 8.48875 101.115 8.48875C101.581 8.48875 101.953 8.32175 102.237 7.98647C102.51 7.67709 102.644 7.30427 102.644 6.86931Z" fill="white"/>
<path d="M116.258 6.34095C116.258 7.27947 115.977 8.04841 115.416 8.65165C114.828 9.27172 114.051 9.58111 113.077 9.58111C112.141 9.58111 111.394 9.28467 110.836 8.68919C110.281 8.09501 110.003 7.34549 110.003 6.44192C110.003 5.49693 110.289 4.72152 110.863 4.11957C111.438 3.51762 112.21 3.216 113.184 3.216C114.12 3.216 114.874 3.51245 115.443 4.10663C115.985 4.68398 116.258 5.42962 116.258 6.34095ZM114.786 6.38496C114.786 5.82185 114.659 5.339 114.406 4.93641C114.106 4.44967 113.684 4.2063 113.131 4.2063C112.562 4.2063 112.129 4.44967 111.829 4.93641C111.574 5.339 111.448 5.82962 111.448 6.40956C111.448 6.97267 111.576 7.45552 111.829 7.85812C112.137 8.34485 112.565 8.58822 113.117 8.58822C113.659 8.58822 114.086 8.34097 114.392 7.84517C114.654 7.43481 114.786 6.94808 114.786 6.38496Z" fill="white"/>
<path d="M123.891 9.44243H122.473V5.94725C122.473 4.87021 122.045 4.3317 121.184 4.3317C120.763 4.3317 120.423 4.47927 120.16 4.77571C119.898 5.07216 119.766 5.42167 119.766 5.82168V9.44113H118.345V5.08381C118.345 4.54788 118.329 3.96664 118.295 3.33751H119.541L119.608 4.29157H119.647C119.814 3.99512 120.06 3.75046 120.383 3.55499C120.769 3.32716 121.198 3.21194 121.671 3.21194C122.266 3.21194 122.761 3.39577 123.156 3.7647C123.647 4.21649 123.891 4.89093 123.891 5.78673V9.44243Z" fill="white"/>
<path d="M133.446 4.35684H131.883V7.32127C131.883 8.07467 132.16 8.45137 132.71 8.45137C132.965 8.45137 133.176 8.43066 133.343 8.38794L133.38 9.41708C133.099 9.51805 132.731 9.56854 132.277 9.56854C131.716 9.56854 131.28 9.40543 130.964 9.07921C130.647 8.753 130.49 8.20412 130.49 7.43389V4.35684H129.557V3.34065H130.49V2.22219L131.881 1.82089V3.33935H133.445V4.35684H133.446Z" fill="white"/>
<path d="M140.962 9.4428H139.541V5.97351C139.541 4.87965 139.113 4.33207 138.255 4.33207C137.597 4.33207 137.147 4.64923 136.9 5.28354C136.858 5.41687 136.834 5.57998 136.834 5.77157V9.44151H135.416V0.540451H136.834V4.21816H136.861C137.308 3.54889 137.949 3.21491 138.779 3.21491C139.367 3.21491 139.854 3.39873 140.24 3.76767C140.721 4.22722 140.962 4.91072 140.962 5.81429V9.4428Z" fill="white"/>
<path d="M148.715 6.10269C148.715 6.34606 148.696 6.55059 148.662 6.71759H144.404C144.423 7.32083 144.626 7.78038 145.02 8.09883C145.381 8.38362 145.845 8.52602 146.414 8.52602C147.044 8.52602 147.619 8.43022 148.136 8.23734L148.358 9.17974C147.753 9.43088 147.04 9.55645 146.215 9.55645C145.226 9.55645 144.447 9.27813 143.884 8.72149C143.318 8.16485 143.037 7.41792 143.037 6.48069C143.037 5.56029 143.299 4.79394 143.826 4.18293C144.376 3.5305 145.119 3.20428 146.058 3.20428C146.977 3.20428 147.674 3.5305 148.146 4.18293C148.526 4.70074 148.715 5.34152 148.715 6.10269ZM147.36 5.75188C147.371 5.34929 147.277 5.00236 147.085 4.7098C146.838 4.3331 146.463 4.1441 145.955 4.1441C145.492 4.1441 145.114 4.32792 144.825 4.69686C144.59 4.99071 144.45 5.34152 144.404 5.75188H147.36Z" fill="white"/>
</svg>
