<svg width="154" height="36" viewBox="0 0 154 36" fill="none" xmlns="http://www.w3.org/2000/svg">
<path d="M49.7782 4.65605C49.7782 5.7455 49.4459 6.61804 48.7912 7.26878C48.0384 8.0402 47.0581 8.42835 45.8567 8.42835C44.7085 8.42835 43.7281 8.03367 42.9239 7.25573C42.118 6.46636 41.7159 5.4976 41.7159 4.33802C41.7159 3.17844 42.118 2.20967 42.9239 1.42683C43.7281 0.642363 44.7085 0.247681 45.8567 0.247681C46.4283 0.247681 46.9733 0.363476 47.4934 0.578757C48.0119 0.795669 48.4339 1.08923 48.7397 1.4513L48.0451 2.13954C47.5117 1.52143 46.7856 1.21645 45.8567 1.21645C45.0192 1.21645 44.2931 1.50349 43.6766 2.08246C43.0668 2.66307 42.761 3.41492 42.761 4.33802C42.761 5.26112 43.0668 6.01949 43.6766 6.6001C44.2931 7.17255 45.0192 7.46611 45.8567 7.46611C46.7457 7.46611 47.4934 7.17255 48.0833 6.59357C48.4721 6.21031 48.6931 5.68189 48.7513 5.00669H45.8567V4.06402H49.7184C49.7649 4.26789 49.7782 4.46523 49.7782 4.65605Z" fill="white"/>
<path d="M55.9046 1.38758H52.2772V3.86657H55.5473V4.80924H52.2772V7.28823H55.9046V8.24884H51.2503V0.426971H55.9046V1.38758Z" fill="white"/>
<path d="M60.2283 8.24884H59.2014V1.38758H56.9764V0.426971H62.4549V1.38758H60.2283V8.24884Z" fill="white"/>
<path d="M66.4196 8.24884V0.426971H67.4448V8.24884H66.4196Z" fill="white"/>
<path d="M71.9893 8.24884H70.9708V1.38758H68.7375V0.426971H74.2226V1.38758H71.9893V8.24884Z" fill="white"/>
<path d="M84.5947 7.24268C83.8088 8.03367 82.835 8.42835 81.6735 8.42835C80.5054 8.42835 79.5317 8.03367 78.7457 7.24268C77.9614 6.45332 77.5709 5.48455 77.5709 4.33802C77.5709 3.19148 77.9614 2.22272 78.7457 1.43336C79.5317 0.642363 80.5054 0.247681 81.6735 0.247681C82.8284 0.247681 83.8021 0.642362 84.5881 1.43988C85.379 2.23577 85.7695 3.19801 85.7695 4.33802C85.7695 5.48455 85.379 6.45332 84.5947 7.24268ZM79.5051 6.58705C80.0967 7.17255 80.8161 7.46611 81.6735 7.46611C82.5243 7.46611 83.2505 7.17255 83.8354 6.58705C84.4252 6.00155 84.7243 5.2497 84.7243 4.33802C84.7243 3.42634 84.4252 2.67448 83.8354 2.08899C83.2505 1.50349 82.5243 1.20992 81.6735 1.20992C80.8161 1.20992 80.0967 1.50349 79.5051 2.08899C78.9152 2.67448 78.6161 3.42634 78.6161 4.33802C78.6161 5.2497 78.9152 6.00155 79.5051 6.58705Z" fill="white"/>
<path d="M87.2101 8.24884V0.426971H88.4563L92.3313 6.51029H92.3761L92.3313 5.00658V0.426971H93.3565V8.24884H92.2864L88.2287 1.86544H88.1838L88.2287 3.37567V8.24884H87.2101Z" fill="white"/>
<path d="M77.3183 19.6715C74.196 19.6715 71.6454 22.0037 71.6454 25.2215C71.6454 28.4132 74.196 30.7699 77.3183 30.7699C80.4472 30.7699 82.9978 28.4132 82.9978 25.2215C82.9978 22.0037 80.4472 19.6715 77.3183 19.6715ZM77.3183 28.5844C75.6051 28.5844 74.1312 27.1965 74.1312 25.2215C74.1312 23.2203 75.6051 21.8569 77.3183 21.8569C79.0314 21.8569 80.512 23.2203 80.512 25.2215C80.512 27.1965 79.0314 28.5844 77.3183 28.5844ZM64.9407 19.6715C61.8118 19.6715 59.2678 22.0037 59.2678 25.2215C59.2678 28.4132 61.8118 30.7699 64.9407 30.7699C68.0679 30.7699 70.6135 28.4132 70.6135 25.2215C70.6135 22.0037 68.0679 19.6715 64.9407 19.6715ZM64.9407 28.5844C63.2258 28.5844 61.747 27.1965 61.747 25.2215C61.747 23.2203 63.2258 21.8569 64.9407 21.8569C66.6538 21.8569 68.1277 23.2203 68.1277 25.2215C68.1277 27.1965 66.6538 28.5844 64.9407 28.5844ZM50.2118 21.3725V23.7308H55.9495C55.7817 25.0486 55.333 26.0174 54.6451 26.6926C53.8076 27.508 52.5032 28.4132 50.2118 28.4132C46.6808 28.4132 43.9158 25.6162 43.9158 22.1505C43.9158 18.6848 46.6808 15.8878 50.2118 15.8878C52.1211 15.8878 53.5102 16.62 54.5354 17.5692L56.2287 15.9073C54.7947 14.5634 52.8871 13.5311 50.2118 13.5311C45.3698 13.5311 41.3004 17.398 41.3004 22.1505C41.3004 26.903 45.3698 30.7699 50.2118 30.7699C52.8289 30.7699 54.7946 29.9283 56.34 28.3496C57.9235 26.7953 58.417 24.6099 58.417 22.8452C58.417 22.2972 58.3705 21.7933 58.2874 21.3725H50.2118ZM110.44 23.2008C109.973 21.9597 108.532 19.6715 105.598 19.6715C102.69 19.6715 100.269 21.9205 100.269 25.2215C100.269 28.33 102.665 30.7699 105.877 30.7699C108.474 30.7699 109.973 29.2156 110.589 28.3104L108.662 27.0497C108.019 27.9728 107.143 28.5844 105.877 28.5844C104.619 28.5844 103.717 28.0185 103.139 26.903L110.701 23.8319L110.44 23.2008ZM102.73 25.0486C102.665 22.9088 104.423 21.8129 105.683 21.8129C106.67 21.8129 107.507 22.2973 107.786 22.9904L102.73 25.0486ZM96.5834 30.4323H99.0693V14.1231H96.5834V30.4323ZM92.5124 20.9077H92.4293C91.871 20.2586 90.8059 19.6715 89.4566 19.6715C86.6252 19.6715 84.0363 22.1113 84.0363 25.2394C84.0363 28.3496 86.6252 30.7699 89.4566 30.7699C90.8059 30.7699 91.871 30.1778 92.4293 29.5092H92.5124V30.305C92.5124 32.4269 91.3575 33.5669 89.4948 33.5669C87.9761 33.5669 87.0339 32.4905 86.6451 31.5853L84.4833 32.4709C85.1064 33.942 86.7564 35.7523 89.4948 35.7523C92.4094 35.7523 94.8686 34.0692 94.8686 29.974V20.0091H92.5124V20.9077ZM89.6693 28.5844C87.9562 28.5844 86.5221 27.1769 86.5221 25.2394C86.5221 23.284 87.9562 21.8569 89.6693 21.8569C91.3575 21.8569 92.6885 23.284 92.6885 25.2394C92.6885 27.1769 91.3575 28.5844 89.6693 28.5844ZM122.078 14.1231H116.133V30.4323H118.612V24.2527H122.078C124.831 24.2527 127.532 22.2972 127.532 19.1871C127.532 16.0786 124.825 14.1231 122.078 14.1231ZM122.143 21.9841H118.612V16.3917H122.143C123.994 16.3917 125.051 17.9003 125.051 19.1871C125.051 20.4494 123.994 21.9841 122.143 21.9841ZM137.468 19.6405C135.677 19.6405 133.814 20.4168 133.048 22.1374L135.248 23.0426C135.722 22.1374 136.593 21.8439 137.513 21.8439C138.799 21.8439 140.104 22.6022 140.124 23.9412V24.1125C139.675 23.858 138.715 23.4813 137.533 23.4813C135.164 23.4813 132.749 24.7616 132.749 27.1509C132.749 29.3363 134.69 30.7438 136.872 30.7438C138.54 30.7438 139.461 30.005 140.039 29.1455H140.124V30.4062H142.518V24.15C142.518 21.2584 140.318 19.6405 137.468 19.6405ZM137.169 28.5779C136.358 28.5779 135.228 28.1832 135.228 27.1965C135.228 25.9342 136.637 25.4498 137.857 25.4498C138.949 25.4498 139.461 25.6863 140.124 25.9978C139.929 27.508 138.605 28.5779 137.169 28.5779ZM151.242 19.9977L148.392 27.0677H148.307L145.361 19.9977H142.688L147.114 29.8777L144.588 35.3756H147.179L154 19.9977H151.242ZM128.894 30.4323H131.38V14.1231H128.894V30.4323Z" fill="white"/>
<path d="M0.616478 1.12666C0.225991 1.52787 7.62939e-06 2.15251 7.62939e-06 2.96144V31.8156C7.62939e-06 32.6245 0.225991 33.2492 0.616478 33.6504L0.712854 33.7385L17.1864 17.5761V17.1944L0.712854 1.03207L0.616478 1.12666Z" fill="url(#paint0_linear_1_380)"/>
<path d="M22.6715 22.9659L17.1864 17.5757V17.194L22.6782 11.8039L22.8011 11.874L29.3048 15.506C31.1609 16.5368 31.1609 18.2329 29.3048 19.2702L22.8011 22.8957L22.6715 22.9659Z" fill="url(#paint1_linear_1_380)"/>
<path d="M22.8013 22.8963L17.1866 17.3854L0.6166 33.6506C1.23307 34.2866 2.23837 34.3633 3.38158 33.7272L22.8013 22.8963Z" fill="url(#paint2_linear_1_380)"/>
<path d="M22.8013 11.8742L3.38158 1.04326C2.23837 0.41373 1.23307 0.490381 0.6166 1.12644L17.1866 17.385L22.8013 11.8742Z" fill="url(#paint3_linear_1_380)"/>
<defs>
<linearGradient id="paint0_linear_1_380" x1="15.7238" y1="32.1161" x2="-6.16896" y2="9.81083" gradientUnits="userSpaceOnUse">
<stop stop-color="#00A0FF"/>
<stop offset="0.0066" stop-color="#00A1FF"/>
<stop offset="0.2601" stop-color="#00BEFF"/>
<stop offset="0.5122" stop-color="#00D2FF"/>
<stop offset="0.7604" stop-color="#00DFFF"/>
<stop offset="1" stop-color="#00E3FF"/>
</linearGradient>
<linearGradient id="paint1_linear_1_380" x1="31.7217" y1="17.383" x2="-0.443653" y2="17.383" gradientUnits="userSpaceOnUse">
<stop stop-color="#FFE000"/>
<stop offset="0.4087" stop-color="#FFBD00"/>
<stop offset="0.7754" stop-color="#FFA500"/>
<stop offset="1" stop-color="#FF9C00"/>
</linearGradient>
<linearGradient id="paint2_linear_1_380" x1="19.7482" y1="14.3896" x2="-9.94018" y2="-15.8581" gradientUnits="userSpaceOnUse">
<stop stop-color="#FF3A44"/>
<stop offset="1" stop-color="#C31162"/>
</linearGradient>
<linearGradient id="paint3_linear_1_380" x1="-3.5544" y1="43.2498" x2="9.70277" y2="29.743" gradientUnits="userSpaceOnUse">
<stop stop-color="#32A071"/>
<stop offset="0.0685" stop-color="#2DA771"/>
<stop offset="0.4762" stop-color="#15CF74"/>
<stop offset="0.8009" stop-color="#06E775"/>
<stop offset="1" stop-color="#00F076"/>
</linearGradient>
</defs>
</svg>
