<svg width="15" height="16" viewBox="0 0 15 16" fill="none" xmlns="http://www.w3.org/2000/svg">
<path d="M4.5 6V5.5C4.22386 5.5 4 5.72386 4 6H4.5ZM4.5 7L4.85355 7.35355L5 7.20711V7H4.5ZM2.79289 7.29289L2.43934 7.64645L2.43934 7.64645L2.79289 7.29289ZM6.5 13.5H7V13.2929L6.85355 13.1464L6.5 13.5ZM5.5 12.5H5V12.7071L5.14645 12.8536L5.5 12.5ZM5.5 11H6V10.7929L5.85355 10.6464L5.5 11ZM4.5 10H4V10.2071L4.14645 10.3536L4.5 10ZM4.5 9V8.5C4.22386 8.5 4 8.72386 4 9H4.5ZM9 1V3H10V1H9ZM8.5 3.5H7.5V4.5H8.5V3.5ZM5.5 5.5H4.5V6.5H5.5V5.5ZM4 6V7H5V6H4ZM4.14645 6.64645L3.85355 6.93934L4.56066 7.64645L4.85355 7.35355L4.14645 6.64645ZM3.14645 6.93934L1.35355 5.14645L0.646447 5.85355L2.43934 7.64645L3.14645 6.93934ZM6 5C6 5.27614 5.77614 5.5 5.5 5.5V6.5C6.32843 6.5 7 5.82843 7 5H6ZM7.5 3.5C6.67157 3.5 6 4.17157 6 5H7C7 4.72386 7.22386 4.5 7.5 4.5V3.5ZM3.85355 6.93934C3.65829 7.1346 3.34171 7.1346 3.14645 6.93934L2.43934 7.64645C3.02513 8.23223 3.97487 8.23223 4.56066 7.64645L3.85355 6.93934ZM9 3C9 3.27614 8.77614 3.5 8.5 3.5V4.5C9.32843 4.5 10 3.82843 10 3H9ZM7 15V13.5H6V15H7ZM6.85355 13.1464L5.85355 12.1464L5.14645 12.8536L6.14645 13.8536L6.85355 13.1464ZM6 12.5V11H5V12.5H6ZM5.85355 10.6464L4.85355 9.64645L4.14645 10.3536L5.14645 11.3536L5.85355 10.6464ZM5 10V9H4V10H5ZM4.5 9.5H8.5V8.5H4.5V9.5ZM9 10V10.6667H10V10H9ZM10.8333 12.5H13.5V11.5H10.8333V12.5ZM10 11.6667C10 12.1269 10.3731 12.5 10.8333 12.5V11.5C10.9254 11.5 11 11.5746 11 11.6667H10ZM9.83333 11.5C9.92538 11.5 10 11.5746 10 11.6667H11C11 11.0223 10.4777 10.5 9.83333 10.5V11.5ZM9 10.6667C9 11.1269 9.3731 11.5 9.83333 11.5V10.5C9.92538 10.5 10 10.5746 10 10.6667H9ZM8.5 9.5C8.77614 9.5 9 9.72386 9 10H10C10 9.17157 9.32843 8.5 8.5 8.5V9.5ZM7.5 14.5C3.91015 14.5 1 11.5899 1 8H0C0 12.1421 3.35786 15.5 7.5 15.5V14.5ZM14 8C14 11.5899 11.0899 14.5 7.5 14.5V15.5C11.6421 15.5 15 12.1421 15 8H14ZM7.5 1.5C11.0899 1.5 14 4.41015 14 8H15C15 3.85786 11.6421 0.5 7.5 0.5V1.5ZM7.5 0.5C3.35786 0.5 0 3.85786 0 8H1C1 4.41015 3.91015 1.5 7.5 1.5V0.5Z" fill="#13141C"/>
</svg>
