<svg width="24" height="25" viewBox="0 0 24 25" fill="none" xmlns="http://www.w3.org/2000/svg">
<g clip-path="url(#clip0_16_157)">
<path d="M23.7658 12.7765C23.7658 11.9608 23.6996 11.1406 23.5585 10.3381H12.2397V14.9591H18.7215C18.4525 16.4495 17.5883 17.7679 16.3228 18.6056V21.604H20.1898C22.4606 19.514 23.7658 16.4274 23.7658 12.7765Z" fill="#4285F4"/>
<path d="M12.2401 24.5009C15.4766 24.5009 18.2059 23.4383 20.1945 21.604L16.3276 18.6057C15.2517 19.3376 13.8627 19.7521 12.2445 19.7521C9.11389 19.7521 6.45947 17.64 5.50705 14.8004H1.5166V17.8914C3.55371 21.9435 7.7029 24.5009 12.2401 24.5009Z" fill="#34A853"/>
<path d="M5.50229 14.8005C4.99962 13.3101 4.99962 11.6963 5.50229 10.2059V7.11499H1.51625C-0.185755 10.5058 -0.185755 14.5006 1.51625 17.8914L5.50229 14.8005Z" fill="#FBBC04"/>
<path d="M12.2401 5.24966C13.9509 5.2232 15.6044 5.86697 16.8434 7.04867L20.2695 3.62262C18.1001 1.5855 15.2208 0.465534 12.2401 0.500809C7.7029 0.500809 3.55371 3.05822 1.5166 7.11481L5.50264 10.2057C6.45064 7.36173 9.10947 5.24966 12.2401 5.24966Z" fill="#EA4335"/>
</g>
<defs>
<clipPath id="clip0_16_157">
<rect width="24" height="24" fill="white" transform="translate(0 0.5)"/>
</clipPath>
</defs>
</svg>
