<svg width="9" height="14" viewBox="0 0 9 14" fill="none" xmlns="http://www.w3.org/2000/svg">
<path d="M8.31131 5.23956C8.27274 5.16133 8.18966 5.11112 8.09814 5.11112H5.30991L8.06166 1.00778C8.10754 0.939339 8.11036 0.852672 8.06897 0.781787C8.02755 0.710667 7.94847 0.666656 7.86283 0.666656H4.09814C4.00897 0.666656 3.92754 0.714209 3.88756 0.789547L0.358154 7.45623C0.321675 7.5249 0.325673 7.60667 0.368494 7.67222C0.411564 7.73776 0.487088 7.77776 0.568733 7.77776H2.98825L0.351785 13.6916C0.30684 13.7927 0.346849 13.91 0.445893 13.9673C0.484 13.9893 0.526353 14 0.568485 14C0.636012 14 0.702602 13.9726 0.748733 13.9211L8.27814 5.47664C8.33717 5.41044 8.34989 5.31799 8.31131 5.23956Z" fill="white"/>
</svg>
