<svg width="51" height="43" viewBox="0 0 51 43" fill="none" xmlns="http://www.w3.org/2000/svg">
<path d="M27.8502 25.7012L33.6711 23.3069C33.6711 23.3069 36.3793 30.7867 50.33 21.3118C49.4844 11.2568 40.305 3.3362 29.1046 3.3362C27.3805 3.33638 25.662 3.52779 23.9804 3.90691C21.7041 1.72148 18.3686 0.19488 13.5929 0V9.09451C9.76962 7.78603 5.14262 8.1201 0 11.9296L7.50257 21.2097C4.76634 22.8708 2.42032 25.7478 1.04524 30.4108L10.0437 32.6473C9.1146 35 8.79403 37.9001 9.36544 41.4635L18.257 39.6494C21.586 41.4382 25.3103 42.3665 29.0906 42.3497C38.205 42.3497 45.9865 37.1067 49.0199 29.729C30.6236 38.3824 27.8502 25.7012 27.8502 25.7012ZM30.6887 10.9598C31.6176 11.6465 32.2542 12.8978 32.5979 14.7136C32.9417 16.5294 32.8209 17.9214 32.2357 18.8897C31.9505 19.3843 31.5571 19.8082 31.0849 20.1296C30.6128 20.451 30.0737 20.6616 29.5085 20.7457L29.3412 20.7782C28.8491 20.877 28.3444 20.8989 27.8456 20.8431C27.1908 20.7583 26.572 20.495 26.0568 20.0822C25.179 19.3815 24.5564 18.138 24.1987 16.3423C23.841 14.5466 23.9571 13.1313 24.5286 12.1662C24.8211 11.6702 25.2214 11.2459 25.6998 10.9247C26.1779 10.6035 26.7225 10.3935 27.2927 10.3102L27.4554 10.2777L27.6458 10.2452C28.1747 10.1408 28.7196 10.1506 29.2446 10.2738C29.7693 10.397 30.2617 10.6309 30.6887 10.9598Z" fill="white"/>
</svg>
