<?xml version="1.0" standalone="no"?>
<!DOCTYPE svg PUBLIC "-//W3C//DTD SVG 20010904//EN"
 "http://www.w3.org/TR/2001/REC-SVG-20010904/DTD/svg10.dtd">
<svg version="1.0" xmlns="http://www.w3.org/2000/svg"
 width="428.000000pt" height="428.000000pt" viewBox="0 0 428.000000 428.000000"
 preserveAspectRatio="xMidYMid meet">
<metadata>
Created by potrace 1.14, written by Peter Selinger 2001-2017
</metadata>
<g transform="translate(0.000000,428.000000) scale(0.100000,-0.100000)"
fill="#000000" stroke="none">
<path d="M1156 3556 c0 -212 -2 -386 -5 -386 -3 0 -28 7 -56 16 -80 24 -229
41 -328 38 -230 -9 -449 -86 -685 -241 -73 -48 -81 -56 -70 -72 7 -9 69 -86
138 -170 69 -84 134 -165 145 -180 11 -16 39 -50 62 -77 76 -90 273 -338 273
-345 0 -3 -19 -19 -42 -35 -102 -69 -218 -188 -292 -298 -50 -74 -155 -277
-160 -309 -1 -7 -4 -16 -7 -22 -10 -17 -41 -116 -38 -119 3 -2 580 -148 599
-151 44 -8 160 -40 160 -46 0 -3 -7 -26 -15 -50 -21 -57 -42 -151 -51 -224
-10 -81 -11 -284 0 -370 4 -38 8 -76 9 -82 0 -7 5 -13 12 -13 9 0 305 58 480
95 11 2 75 15 143 29 l122 26 81 -40 c102 -50 277 -111 394 -139 173 -40 286
-50 495 -46 96 3 190 7 209 10 641 98 1136 442 1399 970 22 44 39 81 38 83 -2
1 -34 -12 -72 -29 -59 -26 -191 -79 -274 -109 -276 -100 -589 -137 -815 -95
-286 53 -525 257 -621 528 -17 47 -9 61 44 78 20 6 60 22 87 34 28 12 116 49
197 82 l147 60 27 -41 c139 -211 424 -251 802 -110 150 56 441 213 560 302 32
24 32 26 26 81 -6 63 -54 263 -79 331 -9 25 -33 81 -54 125 -21 44 -41 87 -45
95 -26 56 -122 193 -197 279 -220 255 -489 433 -819 541 -117 39 -169 51 -320
74 -194 30 -450 27 -638 -9 l-83 -16 -53 46 c-145 124 -392 231 -596 260 -24
4 -47 8 -50 10 -3 1 -45 6 -95 10 l-90 7 1 -386z m1339 -493 c80 -15 175 -95
216 -182 78 -164 99 -395 46 -513 -46 -102 -130 -166 -249 -191 -93 -19 -162
-12 -235 23 -71 35 -111 77 -153 161 -65 127 -96 362 -63 473 52 174 233 269
438 229z"/>
</g>
</svg>
