<svg width="14" height="14" viewBox="0 0 14 14" fill="none" xmlns="http://www.w3.org/2000/svg">
<path fill-rule="evenodd" clip-rule="evenodd" d="M7 0C3.13401 0 0 3.13401 0 7C0 10.866 3.13401 14 7 14C10.866 14 14 10.866 14 7C14 3.13401 10.866 0 7 0ZM7.42251 3.41838C7.34563 3.25459 7.181 3.15 7.00007 3.15C6.81913 3.15 6.6545 3.25459 6.57762 3.41838L5.67394 5.34365L3.66296 5.6507C3.49005 5.6771 3.34642 5.79799 3.29088 5.96386C3.23534 6.12972 3.27723 6.31272 3.39939 6.43792L4.86823 7.94334L4.52048 10.0749C4.4917 10.2512 4.56618 10.4286 4.71228 10.5315C4.85838 10.6344 5.05042 10.6449 5.20683 10.5584L7.00007 9.5671L8.79331 10.5584C8.94971 10.6449 9.14176 10.6344 9.28786 10.5315C9.43395 10.4286 9.50844 10.2512 9.47966 10.0749L9.1319 7.94334L10.6008 6.43792C10.7229 6.31272 10.7648 6.12972 10.7093 5.96386C10.6537 5.79799 10.5101 5.6771 10.3372 5.6507L8.3262 5.34365L7.42251 3.41838Z" fill="#424563"/>
</svg>
