<svg width="16" height="16" viewBox="0 0 16 16" fill="none" xmlns="http://www.w3.org/2000/svg">
<path fill-rule="evenodd" clip-rule="evenodd" d="M9.53351 8.501V8.4995C9.44959 8.50549 9.017 8.53098 8.05189 8.53098C7.28133 8.53098 6.73888 8.50849 6.54815 8.4995V8.50175C3.58186 8.37359 1.36782 7.86622 1.36782 7.25917C1.36782 6.65287 3.58186 6.1455 6.54815 6.0151V7.99662C6.74193 8.01011 7.29735 8.04234 8.06486 8.04234C8.98572 8.04234 9.4473 8.00487 9.53351 7.99737V6.0166C12.4937 6.14625 14.7024 6.65362 14.7024 7.25917C14.7024 7.86622 12.4937 8.37209 9.53351 8.501ZM9.53351 5.8105V4.03732H13.664V1.33333H2.41762V4.03732H6.54815V5.80975C3.19124 5.96114 0.666687 6.61465 0.666687 7.39707C0.666687 8.17949 3.19124 8.83225 6.54815 8.98439V14.6667H9.53351V8.98289C12.8851 8.8315 15.4035 8.17874 15.4035 7.39707C15.4035 6.6154 12.8851 5.96264 9.53351 5.8105Z" fill="white"/>
</svg>
