<svg width="20" height="20" viewBox="0 0 20 20" fill="none" xmlns="http://www.w3.org/2000/svg">
<path d="M5.47791 1.40771C4.69633 1.40771 3.93687 1.70313 3.37559 2.23553C2.8143 2.76786 2.48792 3.50609 2.48792 4.27237C2.48792 5.03865 2.8143 5.77694 3.37559 6.30934C3.93687 6.84174 4.69633 7.13894 5.47791 7.13894C6.2595 7.13894 7.01896 6.84174 7.58024 6.30922C8.14152 5.77694 8.46791 5.03877 8.46791 4.27249C8.46791 3.50621 8.14152 2.76792 7.58024 2.23553C7.01896 1.70313 6.2595 1.40771 5.47791 1.40771ZM13.7808 1.95895C13.6679 1.95928 13.5576 1.99324 13.4641 2.0565C13.3706 2.11977 13.298 2.20946 13.2557 2.31414C13.2134 2.41881 13.2033 2.53372 13.2265 2.6442C13.2498 2.75468 13.3055 2.85571 13.3865 2.93441L14.7245 4.27243L13.4313 5.5656C13.3785 5.61837 13.3367 5.68101 13.3081 5.74995C13.2796 5.81889 13.2649 5.89278 13.2649 5.9674C13.2649 6.04202 13.2796 6.11591 13.3081 6.18485C13.3367 6.25379 13.3785 6.31643 13.4313 6.3692C13.4841 6.42196 13.5467 6.46382 13.6157 6.49237C13.6846 6.52093 13.7585 6.53563 13.8331 6.53563C13.9077 6.53563 13.9816 6.52093 14.0505 6.49237C14.1195 6.46382 14.1821 6.42196 14.2349 6.3692L15.5281 5.07596L16.8661 6.4159C16.9727 6.52246 17.1172 6.58231 17.2679 6.58229C17.4186 6.58227 17.5632 6.52239 17.6697 6.41581C17.7763 6.30923 17.8361 6.16469 17.8361 6.01398C17.8361 5.86327 17.7762 5.71874 17.6696 5.61219L16.3316 4.27249L17.6248 2.97932C17.707 2.89953 17.7632 2.79676 17.7859 2.68448C17.8087 2.5722 17.7969 2.45566 17.7523 2.35016C17.7076 2.24467 17.6321 2.15513 17.5357 2.09332C17.4392 2.03151 17.3263 2.0003 17.2118 2.0038C17.0642 2.00817 16.924 2.06985 16.8211 2.17579L15.528 3.4689L14.1899 2.13094C14.1368 2.07627 14.0731 2.03287 14.0028 2.00332C13.9325 1.97377 13.857 1.95868 13.7808 1.95895ZM5.47791 2.54379C5.9645 2.54379 6.46371 2.74335 6.79913 3.06148C7.13449 3.37962 7.33356 3.83589 7.33356 4.27243C7.33356 4.70897 7.13455 5.16704 6.79919 5.48517C6.46371 5.80331 5.96456 6.00101 5.47797 6.00101C4.99138 6.00101 4.49217 5.80343 4.15675 5.48529C3.82139 5.16716 3.62232 4.70909 3.62232 4.27255C3.62232 3.83589 3.82133 3.37974 4.15669 3.0616C4.49217 2.74347 4.99132 2.54379 5.47791 2.54379ZM15.5281 11.7007C14.7465 11.7007 13.987 11.9961 13.4257 12.5286C12.8644 13.061 12.538 13.7992 12.538 14.5655C12.538 15.3318 12.8644 16.0701 13.4257 16.6025C13.987 17.1349 14.7465 17.4322 15.528 17.4322C16.3096 17.4322 17.0691 17.1349 17.6304 16.6025C18.1916 16.07 18.5179 15.3317 18.5179 14.5655C18.5179 13.7992 18.1916 13.0609 17.6303 12.5285C17.069 11.9961 16.3097 11.7007 15.5281 11.7007ZM3.73253 12.2521C3.61949 12.2521 3.50902 12.2858 3.41525 12.3489C3.32147 12.412 3.24866 12.5017 3.20612 12.6064C3.16358 12.7111 3.15325 12.8261 3.17645 12.9368C3.19965 13.0474 3.25533 13.1486 3.33636 13.2274L4.67438 14.5655L3.38121 15.8587C3.32781 15.9113 3.28535 15.974 3.25628 16.0431C3.22721 16.1122 3.2121 16.1863 3.21183 16.2613C3.21155 16.3363 3.22611 16.4106 3.25467 16.4799C3.28323 16.5492 3.32523 16.6122 3.37824 16.6652C3.43124 16.7182 3.49422 16.7602 3.56353 16.7887C3.63284 16.8173 3.70713 16.8319 3.78209 16.8316C3.85706 16.8313 3.93123 16.8162 4.00034 16.7872C4.06944 16.7581 4.13211 16.7157 4.18474 16.6623L5.47791 15.3691L6.81594 16.7071C6.8687 16.7599 6.93134 16.8017 7.00028 16.8303C7.06922 16.8588 7.14311 16.8735 7.21773 16.8735C7.29235 16.8735 7.36624 16.8588 7.43518 16.8303C7.50412 16.8017 7.56676 16.7599 7.61953 16.7071C7.67229 16.6543 7.71415 16.5917 7.7427 16.5228C7.77126 16.4538 7.78596 16.3799 7.78596 16.3053C7.78596 16.2307 7.77126 16.1568 7.7427 16.0879C7.71415 16.0189 7.67229 15.9563 7.61953 15.9035L6.2815 14.5655L7.57468 13.2723C7.65689 13.1925 7.71307 13.0898 7.73582 12.9775C7.75857 12.8652 7.74685 12.7486 7.70218 12.6431C7.65751 12.5376 7.58198 12.4481 7.48552 12.3863C7.38905 12.3245 7.27615 12.2933 7.16164 12.2968C7.01408 12.3012 6.87403 12.3629 6.77115 12.4687L5.47791 13.762L4.13989 12.4239C4.08692 12.3695 4.02357 12.3262 3.95359 12.2967C3.88362 12.2672 3.80849 12.252 3.73253 12.2521ZM15.5281 12.8369C16.0146 12.8369 16.5139 13.0346 16.8492 13.3527C17.1847 13.6708 17.3837 14.1289 17.3837 14.5654C17.3837 15.002 17.1846 15.4582 16.8492 15.7764C16.5139 16.0945 16.0146 16.294 15.528 16.294C15.0415 16.294 14.5422 16.0945 14.2069 15.7764C13.8714 15.4582 13.6722 15.002 13.6722 14.5654C13.6722 14.1289 13.8714 13.6708 14.2069 13.3527C14.5421 13.0346 15.0415 12.8369 15.5281 12.8369Z" fill="#676A8E"/>
<path d="M2.0753 8.99296H8.52772H9.90311V1.97586C9.9011 1.82549 9.95879 1.68046 10.0635 1.57256C10.1683 1.46465 10.3115 1.40268 10.4619 1.40022C10.5379 1.39897 10.6134 1.41299 10.6839 1.44145C10.7544 1.46991 10.8185 1.51223 10.8723 1.56591C10.9262 1.61959 10.9687 1.68354 10.9974 1.75396C11.0261 1.82437 11.0403 1.89983 11.0393 1.97586V8.9929H17.95C18.0246 8.9929 18.0985 9.0076 18.1674 9.03615C18.2363 9.0647 18.2989 9.10654 18.3517 9.1593C18.4044 9.21205 18.4463 9.27468 18.4748 9.3436C18.5034 9.41253 18.5181 9.4864 18.5181 9.561C18.5181 9.63561 18.5034 9.70948 18.4748 9.7784C18.4463 9.84733 18.4044 9.90996 18.3517 9.96271C18.2989 10.0155 18.2363 10.0573 18.1674 10.0859C18.0985 10.1144 18.0246 10.1291 17.95 10.1291H11.0393V11.5045V17.9682C11.0393 18.1188 10.9795 18.2633 10.8729 18.3699C10.7664 18.4764 10.6219 18.5363 10.4712 18.5363C10.3205 18.5363 10.176 18.4764 10.0695 18.3699C9.96297 18.2633 9.90311 18.1188 9.90311 17.9682V11.5045V10.1291H8.52772L2.0753 10.1292C1.92463 10.1292 1.78013 10.0693 1.6736 9.96277C1.56706 9.85623 1.5072 9.71173 1.5072 9.56106C1.5072 9.41039 1.56706 9.26589 1.6736 9.15935C1.78013 9.05282 1.92463 8.99296 2.0753 8.99296Z" fill="#676A8E"/>
</svg>
